# xmcd CD database file
#
# Track frame offsets:
#	150
#	13078
#	27066
#	41221
#	55766
#	68751
#	82515
#	97618
#	112915
#	126624
#	150030
#	165327
#	179370
#	195448
#	209296
#	221417
#	233761
#	247776
#	260566
#	272185
#
# Disc length: 3816 seconds
#
# Revision: 0
# Processed by: cddbd v1.5.1PL2 Copyright (c) Steve Scherf et al.
# Submitted via: CDex 1.51
#
DISCID=f40ee614
DTITLE=Charlie Parker - 10 Jazz Legends Vol 1 CD 6
DYEAR=1900
DGENRE=Jazz
TTITLE0=Tiny's tempo
TTITLE1=Hot house
TTITLE2=Billie's bounce
TTITLE3=Meandering
TTITLE4=Koko
TTITLE5=Moose the mooche
TTITLE6=Lover Man
TTITLE7=Embraceable you
TTITLE8=Parker's mood
TTITLE9=Night in Tunisia
TTITLE10=My melancholy baby
TTITLE11=Out of nowhere
TTITLE12=I'm in the mood for love
TTITLE13=My little Suede shoes
TTITLE14=Un poquito de tu amor
TTITLE15=Tico Tico
TTITLE16=Why do i love you ?
TTITLE17=Night and day
TTITLE18=Almost like being in love
TTITLE19=I can't get started
EXTD=
EXTT0=
EXTT1=
EXTT2=
EXTT3=
EXTT4=
EXTT5=
EXTT6=
EXTT7=
EXTT8=
EXTT9=
EXTT10=
EXTT11=
EXTT12=
EXTT13=
EXTT14=
EXTT15=
EXTT16=
EXTT17=
EXTT18=
EXTT19=
PLAYORDER=
